<?xml version="1.0" encoding="utf-8"?>
<!-- Generator: Adobe Illustrator 24.2.1, SVG Export Plug-In . SVG Version: 6.00 Build 0)  -->
<svg version="1.1" id="Layer_1" xmlns="http://www.w3.org/2000/svg" xmlns:xlink="http://www.w3.org/1999/xlink" x="0px" y="0px"
	 viewBox="0 0 582.12 151.38" style="enable-background:new 0 0 582.12 151.38;" xml:space="preserve">
<style type="text/css">
	.st0{fill:#4F3189;}
</style>
<g id="layer1" transform="translate(-323.46905,-99.43165)">
	<path id="path200" class="st0" d="M436.32,240.42c-0.01-5.97-2.98-8.1-9.19-8.1h-62.67c-13.15-0.04-20.51-6.07-20.54-20.82V109.55
		c-0.01-8.41-4.36-10.13-10.24-10.12c-5.86,0.02-10.22,1.73-10.22,10.12V211.5c0,32.13,18.79,37.16,40.69,37.1h63
		C433.34,248.6,436.33,246.46,436.32,240.42"/>
	<path id="path204" class="st0" d="M564.91,126.19c-5.74,0.01-9.92,1.63-9.92,10.12v91.47c-6.35,3.44-18.86,6.67-32.63,6.69
		c-57.36,0.06-67.19-41.76-67.71-98.16c-0.08-7.96-3.46-10.12-9.96-10.12c-5.65,0-9.95,1.52-9.93,10.12
		c0.11,76.34,23.53,114.83,87.59,114.49c22.42-0.12,41.81-7.59,46.16-9.76c4.52-2.26,6.31-5.21,6.3-12.15v-92.6
		C574.83,127.96,570.85,126.18,564.91,126.19"/>
	<path id="path208" class="st0" d="M622,199.99v-54.73c5.85-2.14,15.83-4.55,26.97-4.55c43.86,0,66.88,24.99,76.05,59.28H622z
		 M648.97,124.37c-11.83-0.05-27.41,2.19-40.18,7.42c-3.81,1.62-6.66,3.18-6.65,10.72l-0.02,96.04c0,8.35,4.03,10.12,9.96,10.12
		c5.74,0,9.92-1.63,9.93-10.12v-22.26h106.27c1,7.19,1.51,14.65,1.58,22.25c0.07,7.95,3.46,10.11,9.96,10.11
		c5.64,0.01,9.94-1.53,9.93-10.11C749.63,157.8,702.99,124.6,648.97,124.37"/>
	<path id="path212" class="st0" d="M899.53,148.54c-1.79,4.29-3.92,4.94-6.91,4.94c-2.12,0-5.44-1.54-8.41-2.76
		c-10.98-4.51-27.18-9.95-47.73-9.95c-34.18,0-46.41,7.03-46.41,16.45c0,8.6,7.28,11.43,12.94,12.51c10.21,1.96,23.4,4.2,37.54,6.53
		c15.41,2.54,21.96,3.6,26.39,4.51c17.35,3.55,38.75,10.05,38.64,32.41c-0.13,27.69-28.74,37.72-69.11,37.63
		c-33.92-0.07-55.3-10.33-63.61-15.33c-4.38-2.65-5.99-5.75-4.52-10.92c0.9-3.19,3.16-6.05,6.79-6.05c2.83,0,5.28,1.46,8.2,2.99
		c13.82,7.24,29.36,12.89,53.13,12.89c33.68,0,47.79-6.57,47.79-19.33c0-7.35-6.61-13.19-17.51-15.46
		c-7.17-1.48-15.74-2.85-27.8-4.88c-15.06-2.53-24.27-4.01-31.71-5.23c-14.34-2.35-38.62-7.44-38.66-30.28
		c-0.04-28.71,35.84-34.88,67.89-34.86c22.57,0.02,43.9,5.31,58.18,12.23C900.26,139.27,902.03,142.55,899.53,148.54"/>
</g>
</svg>
